{"title":"Snow White and the Seven Dwarfs 1937 DVDrip Dutch English Klam","uid":6568242,"size":1679559379,"categoryP":"video","categoryS":"movies","magnet":"?xt=urn:btih:747f42b18f98124529232f759b5d25b2a06f223a&amp;dn=Snow+White+and+the+Seven+Dwarfs+1937+DVDrip+Dutch+English+Klam&amp;tr=udp%3A%2F%2Ftracker.openbittorrent.com%3A80&amp;tr=udp%3A%2F%2Fopen.demonii.com%3A1337&amp;tr=udp%3A%2F%2Ftracker.coppersurfer.tk%3A6969&amp;tr=udp%3A%2F%2Fexodus.desync.com%3A6969","seeders":2,"leechers":0,"uploader":"Klambake","files":-1,"time":1311727587,"description":"Nederlands of Engels gesproken\nEnglish or Dutch spoken\n\nMet bekende Nederlandse stemmen\nEen jaloerse koningin probeert haar mooie stiefdochter Snow White kwijt te raken. Ze huurt een jager in om haar te vermoorden, maar hij kan het niet over z'n hart verkrijgen om haar ook echt te doden. Ze besluit te schuilen bij zeven dwergen in hun huis in de bossen. De koningin neemt hier geen genoegen mee en probeert haar stiefdochter alsnog om te brengen.\n\nWith the voices of Adriana Caselotti, Harry Stockwell and Eddie Collins\nSnow White, pursued by a jealous queen, hides with the Dwarfs; the queen feeds her a poison apple, but Prince Charming awakens her with a kiss. \n\n------------------ Dutch Friends ------------------\nYou can find my Friends at: http://www.Film-Test.nl \n------ They got my dutchs subs ---- and more ------\n\nGeneral:\n\nComplete name                    : Snow White and the Seven Dwarfs\\Snow White and the Seven Dwarfs.avi\nFormat                           : AVI\nFormat/Info                      : Audio Video Interleave\nFile size                        : 1.56 GiB\nDuration                         : 1h 20mn\nOverall bit rate                 : 2 794 Kbps\n\nVideo:\n\nFormat                           : MPEG-4 Visual\nFormat profile                   : Simple@L3\nFormat settings, BVOP            : No\nFormat settings, QPel            : No\nFormat settings, GMC             : No warppoints\nFormat settings, Matrix          : Default (H.263)\nCodec ID                         : XVID\nCodec ID/Hint                    : XviD\nDuration                         : 1h 20mn\nBit rate                         : 2 009 Kbps\nWidth                            : 640 pixels\nHeight                           : 480 pixels\nDisplay aspect ratio             : 4:3\nFrame rate                       : 25.000 fps\nColor space                      : YUV\nChroma subsampling               : 4:2:0\nBit depth                        : 8 bits\nScan type                        : Progressive\nBits/(Pixel*Frame)               : 0.262\nStream size                      : 1.12 GiB (72%)\nWriting library                  : XviD 1.1.2 (UTC 2006-11-01)\n\nAudio's:\n\nFormat                           : AC-3\nFormat/Info                      : Audio Coding 3\nMode extension                   : CM (complete main)\nCodec ID                         : 2000\nDuration                         : 1h 20mn\nBit rate mode                    : Constant\nBit rate                         : 384 Kbps\nChannel(s)                       : 6 channels\nChannel positions                : Front: L C R, Side: L R, LFE\nSampling rate                    : 48.0 KHz\nBit depth                        : 16 bits\nStream size                      : 220 MiB (14%)\nAlignment                        : Aligned on interleaves\nInterleave, duration             : 32 ms (0.80 video frame)\nInterleave, preload duration     : 416 ms\n\n\n\n","torrent":{"xt":"urn:btih:747f42b18f98124529232f759b5d25b2a06f223a","amp;dn":"Snow+White+and+the+Seven+Dwarfs+1937+DVDrip+Dutch+English+Klam","amp;tr":["udp%3A%2F%2Ftracker.openbittorrent.com%3A80","udp%3A%2F%2Fopen.demonii.com%3A1337","udp%3A%2F%2Ftracker.coppersurfer.tk%3A6969","udp%3A%2F%2Fexodus.desync.com%3A6969"],"infoHash":"747f42b18f98124529232f759b5d25b2a06f223a","infoHashBuffer":{"type":"Buffer","data":[116,127,66,177,143,152,18,69,41,35,47,117,155,93,37,178,160,111,34,58]},"announce":[],"urlList":[]}}